<mxfile host="65bd71144e">
    <diagram id="lrjP1plBM1akT5TyVISz" name="Page-1">
        <mxGraphModel dx="806" dy="634" grid="1" gridSize="10" guides="1" tooltips="1" connect="1" arrows="1" fold="1" page="1" pageScale="1" pageWidth="1654" pageHeight="2336" math="0" shadow="0">
            <root>
                <mxCell id="0"/>
                <mxCell id="1" parent="0"/>
                <mxCell id="2" value="" style="rounded=0;whiteSpace=wrap;html=1;" parent="1" vertex="1">
                    <mxGeometry x="50" y="60" width="1210" height="470" as="geometry"/>
                </mxCell>
                <mxCell id="Px60Zx_xpM8tq9wNsqnK-1" value="books" style="shape=table;startSize=30;container=1;collapsible=1;childLayout=tableLayout;fixedRows=1;rowLines=0;fontStyle=1;align=center;resizeLast=1;" parent="1" vertex="1">
                    <mxGeometry x="545" y="130" width="220" height="360" as="geometry"/>
                </mxCell>
                <mxCell id="Px60Zx_xpM8tq9wNsqnK-2" value="" style="shape=tableRow;horizontal=0;startSize=0;swimlaneHead=0;swimlaneBody=0;fillColor=none;collapsible=0;dropTarget=0;points=[[0,0.5],[1,0.5]];portConstraint=eastwest;top=0;left=0;right=0;bottom=1;" parent="Px60Zx_xpM8tq9wNsqnK-1" vertex="1">
                    <mxGeometry y="30" width="220" height="30" as="geometry"/>
                </mxCell>
                <mxCell id="Px60Zx_xpM8tq9wNsqnK-3" value="PK" style="shape=partialRectangle;connectable=0;fillColor=none;top=0;left=0;bottom=0;right=0;fontStyle=1;overflow=hidden;" parent="Px60Zx_xpM8tq9wNsqnK-2" vertex="1">
                    <mxGeometry width="30" height="30" as="geometry">
                        <mxRectangle width="30" height="30" as="alternateBounds"/>
                    </mxGeometry>
                </mxCell>
                <mxCell id="Px60Zx_xpM8tq9wNsqnK-4" value="book_id (integer)" style="shape=partialRectangle;connectable=0;fillColor=none;top=0;left=0;bottom=0;right=0;align=left;spacingLeft=6;fontStyle=5;overflow=hidden;" parent="Px60Zx_xpM8tq9wNsqnK-2" vertex="1">
                    <mxGeometry x="30" width="190" height="30" as="geometry">
                        <mxRectangle width="190" height="30" as="alternateBounds"/>
                    </mxGeometry>
                </mxCell>
                <mxCell id="Px60Zx_xpM8tq9wNsqnK-5" value="" style="shape=tableRow;horizontal=0;startSize=0;swimlaneHead=0;swimlaneBody=0;fillColor=none;collapsible=0;dropTarget=0;points=[[0,0.5],[1,0.5]];portConstraint=eastwest;top=0;left=0;right=0;bottom=0;" parent="Px60Zx_xpM8tq9wNsqnK-1" vertex="1">
                    <mxGeometry y="60" width="220" height="30" as="geometry"/>
                </mxCell>
                <mxCell id="Px60Zx_xpM8tq9wNsqnK-6" value="" style="shape=partialRectangle;connectable=0;fillColor=none;top=0;left=0;bottom=0;right=0;editable=1;overflow=hidden;" parent="Px60Zx_xpM8tq9wNsqnK-5" vertex="1">
                    <mxGeometry width="30" height="30" as="geometry">
                        <mxRectangle width="30" height="30" as="alternateBounds"/>
                    </mxGeometry>
                </mxCell>
                <mxCell id="Px60Zx_xpM8tq9wNsqnK-7" value="title (string)" style="shape=partialRectangle;connectable=0;fillColor=none;top=0;left=0;bottom=0;right=0;align=left;spacingLeft=6;overflow=hidden;" parent="Px60Zx_xpM8tq9wNsqnK-5" vertex="1">
                    <mxGeometry x="30" width="190" height="30" as="geometry">
                        <mxRectangle width="190" height="30" as="alternateBounds"/>
                    </mxGeometry>
                </mxCell>
                <mxCell id="Px60Zx_xpM8tq9wNsqnK-106" value="" style="shape=tableRow;horizontal=0;startSize=0;swimlaneHead=0;swimlaneBody=0;fillColor=none;collapsible=0;dropTarget=0;points=[[0,0.5],[1,0.5]];portConstraint=eastwest;top=0;left=0;right=0;bottom=0;" parent="Px60Zx_xpM8tq9wNsqnK-1" vertex="1">
                    <mxGeometry y="90" width="220" height="30" as="geometry"/>
                </mxCell>
                <mxCell id="Px60Zx_xpM8tq9wNsqnK-107" value="" style="shape=partialRectangle;connectable=0;fillColor=none;top=0;left=0;bottom=0;right=0;editable=1;overflow=hidden;" parent="Px60Zx_xpM8tq9wNsqnK-106" vertex="1">
                    <mxGeometry width="30" height="30" as="geometry">
                        <mxRectangle width="30" height="30" as="alternateBounds"/>
                    </mxGeometry>
                </mxCell>
                <mxCell id="Px60Zx_xpM8tq9wNsqnK-108" value="description (text)" style="shape=partialRectangle;connectable=0;fillColor=none;top=0;left=0;bottom=0;right=0;align=left;spacingLeft=6;overflow=hidden;" parent="Px60Zx_xpM8tq9wNsqnK-106" vertex="1">
                    <mxGeometry x="30" width="190" height="30" as="geometry">
                        <mxRectangle width="190" height="30" as="alternateBounds"/>
                    </mxGeometry>
                </mxCell>
                <mxCell id="Px60Zx_xpM8tq9wNsqnK-8" value="" style="shape=tableRow;horizontal=0;startSize=0;swimlaneHead=0;swimlaneBody=0;fillColor=none;collapsible=0;dropTarget=0;points=[[0,0.5],[1,0.5]];portConstraint=eastwest;top=0;left=0;right=0;bottom=0;" parent="Px60Zx_xpM8tq9wNsqnK-1" vertex="1">
                    <mxGeometry y="120" width="220" height="30" as="geometry"/>
                </mxCell>
                <mxCell id="Px60Zx_xpM8tq9wNsqnK-9" value="" style="shape=partialRectangle;connectable=0;fillColor=none;top=0;left=0;bottom=0;right=0;editable=1;overflow=hidden;" parent="Px60Zx_xpM8tq9wNsqnK-8" vertex="1">
                    <mxGeometry width="30" height="30" as="geometry">
                        <mxRectangle width="30" height="30" as="alternateBounds"/>
                    </mxGeometry>
                </mxCell>
                <mxCell id="Px60Zx_xpM8tq9wNsqnK-10" value="isbn13 (string)" style="shape=partialRectangle;connectable=0;fillColor=none;top=0;left=0;bottom=0;right=0;align=left;spacingLeft=6;overflow=hidden;" parent="Px60Zx_xpM8tq9wNsqnK-8" vertex="1">
                    <mxGeometry x="30" width="190" height="30" as="geometry">
                        <mxRectangle width="190" height="30" as="alternateBounds"/>
                    </mxGeometry>
                </mxCell>
                <mxCell id="Px60Zx_xpM8tq9wNsqnK-14" value="" style="shape=tableRow;horizontal=0;startSize=0;swimlaneHead=0;swimlaneBody=0;fillColor=none;collapsible=0;dropTarget=0;points=[[0,0.5],[1,0.5]];portConstraint=eastwest;top=0;left=0;right=0;bottom=0;" parent="Px60Zx_xpM8tq9wNsqnK-1" vertex="1">
                    <mxGeometry y="150" width="220" height="30" as="geometry"/>
                </mxCell>
                <mxCell id="Px60Zx_xpM8tq9wNsqnK-15" value="" style="shape=partialRectangle;connectable=0;fillColor=none;top=0;left=0;bottom=0;right=0;editable=1;overflow=hidden;" parent="Px60Zx_xpM8tq9wNsqnK-14" vertex="1">
                    <mxGeometry width="30" height="30" as="geometry">
                        <mxRectangle width="30" height="30" as="alternateBounds"/>
                    </mxGeometry>
                </mxCell>
                <mxCell id="Px60Zx_xpM8tq9wNsqnK-16" value="num_pages (integer)" style="shape=partialRectangle;connectable=0;fillColor=none;top=0;left=0;bottom=0;right=0;align=left;spacingLeft=6;overflow=hidden;" parent="Px60Zx_xpM8tq9wNsqnK-14" vertex="1">
                    <mxGeometry x="30" width="190" height="30" as="geometry">
                        <mxRectangle width="190" height="30" as="alternateBounds"/>
                    </mxGeometry>
                </mxCell>
                <mxCell id="Px60Zx_xpM8tq9wNsqnK-17" value="" style="shape=tableRow;horizontal=0;startSize=0;swimlaneHead=0;swimlaneBody=0;fillColor=none;collapsible=0;dropTarget=0;points=[[0,0.5],[1,0.5]];portConstraint=eastwest;top=0;left=0;right=0;bottom=0;" parent="Px60Zx_xpM8tq9wNsqnK-1" vertex="1">
                    <mxGeometry y="180" width="220" height="30" as="geometry"/>
                </mxCell>
                <mxCell id="Px60Zx_xpM8tq9wNsqnK-18" value="" style="shape=partialRectangle;connectable=0;fillColor=none;top=0;left=0;bottom=0;right=0;editable=1;overflow=hidden;" parent="Px60Zx_xpM8tq9wNsqnK-17" vertex="1">
                    <mxGeometry width="30" height="30" as="geometry">
                        <mxRectangle width="30" height="30" as="alternateBounds"/>
                    </mxGeometry>
                </mxCell>
                <mxCell id="Px60Zx_xpM8tq9wNsqnK-19" value="publication_date (datetime)" style="shape=partialRectangle;connectable=0;fillColor=none;top=0;left=0;bottom=0;right=0;align=left;spacingLeft=6;overflow=hidden;" parent="Px60Zx_xpM8tq9wNsqnK-17" vertex="1">
                    <mxGeometry x="30" width="190" height="30" as="geometry">
                        <mxRectangle width="190" height="30" as="alternateBounds"/>
                    </mxGeometry>
                </mxCell>
                <mxCell id="Px60Zx_xpM8tq9wNsqnK-92" value="" style="shape=tableRow;horizontal=0;startSize=0;swimlaneHead=0;swimlaneBody=0;fillColor=none;collapsible=0;dropTarget=0;points=[[0,0.5],[1,0.5]];portConstraint=eastwest;top=0;left=0;right=0;bottom=0;" parent="Px60Zx_xpM8tq9wNsqnK-1" vertex="1">
                    <mxGeometry y="210" width="220" height="30" as="geometry"/>
                </mxCell>
                <mxCell id="Px60Zx_xpM8tq9wNsqnK-93" value="" style="shape=partialRectangle;connectable=0;fillColor=none;top=0;left=0;bottom=0;right=0;editable=1;overflow=hidden;" parent="Px60Zx_xpM8tq9wNsqnK-92" vertex="1">
                    <mxGeometry width="30" height="30" as="geometry">
                        <mxRectangle width="30" height="30" as="alternateBounds"/>
                    </mxGeometry>
                </mxCell>
                <mxCell id="Px60Zx_xpM8tq9wNsqnK-94" value="price (decimal)" style="shape=partialRectangle;connectable=0;fillColor=none;top=0;left=0;bottom=0;right=0;align=left;spacingLeft=6;overflow=hidden;" parent="Px60Zx_xpM8tq9wNsqnK-92" vertex="1">
                    <mxGeometry x="30" width="190" height="30" as="geometry">
                        <mxRectangle width="190" height="30" as="alternateBounds"/>
                    </mxGeometry>
                </mxCell>
                <mxCell id="Px60Zx_xpM8tq9wNsqnK-103" value="" style="shape=tableRow;horizontal=0;startSize=0;swimlaneHead=0;swimlaneBody=0;fillColor=none;collapsible=0;dropTarget=0;points=[[0,0.5],[1,0.5]];portConstraint=eastwest;top=0;left=0;right=0;bottom=0;" parent="Px60Zx_xpM8tq9wNsqnK-1" vertex="1">
                    <mxGeometry y="240" width="220" height="30" as="geometry"/>
                </mxCell>
                <mxCell id="Px60Zx_xpM8tq9wNsqnK-104" value="" style="shape=partialRectangle;connectable=0;fillColor=none;top=0;left=0;bottom=0;right=0;editable=1;overflow=hidden;" parent="Px60Zx_xpM8tq9wNsqnK-103" vertex="1">
                    <mxGeometry width="30" height="30" as="geometry">
                        <mxRectangle width="30" height="30" as="alternateBounds"/>
                    </mxGeometry>
                </mxCell>
                <mxCell id="Px60Zx_xpM8tq9wNsqnK-105" value="image_url (string)" style="shape=partialRectangle;connectable=0;fillColor=none;top=0;left=0;bottom=0;right=0;align=left;spacingLeft=6;overflow=hidden;" parent="Px60Zx_xpM8tq9wNsqnK-103" vertex="1">
                    <mxGeometry x="30" width="190" height="30" as="geometry">
                        <mxRectangle width="190" height="30" as="alternateBounds"/>
                    </mxGeometry>
                </mxCell>
                <mxCell id="Px60Zx_xpM8tq9wNsqnK-11" value="" style="shape=tableRow;horizontal=0;startSize=0;swimlaneHead=0;swimlaneBody=0;fillColor=none;collapsible=0;dropTarget=0;points=[[0,0.5],[1,0.5]];portConstraint=eastwest;top=0;left=0;right=0;bottom=0;" parent="Px60Zx_xpM8tq9wNsqnK-1" vertex="1">
                    <mxGeometry y="270" width="220" height="30" as="geometry"/>
                </mxCell>
                <mxCell id="Px60Zx_xpM8tq9wNsqnK-12" value="FK" style="shape=partialRectangle;connectable=0;fillColor=none;top=0;left=0;bottom=0;right=0;editable=1;overflow=hidden;" parent="Px60Zx_xpM8tq9wNsqnK-11" vertex="1">
                    <mxGeometry width="30" height="30" as="geometry">
                        <mxRectangle width="30" height="30" as="alternateBounds"/>
                    </mxGeometry>
                </mxCell>
                <mxCell id="Px60Zx_xpM8tq9wNsqnK-13" value="language (integer)" style="shape=partialRectangle;connectable=0;fillColor=none;top=0;left=0;bottom=0;right=0;align=left;spacingLeft=6;overflow=hidden;" parent="Px60Zx_xpM8tq9wNsqnK-11" vertex="1">
                    <mxGeometry x="30" width="190" height="30" as="geometry">
                        <mxRectangle width="190" height="30" as="alternateBounds"/>
                    </mxGeometry>
                </mxCell>
                <mxCell id="Px60Zx_xpM8tq9wNsqnK-20" value="" style="shape=tableRow;horizontal=0;startSize=0;swimlaneHead=0;swimlaneBody=0;fillColor=none;collapsible=0;dropTarget=0;points=[[0,0.5],[1,0.5]];portConstraint=eastwest;top=0;left=0;right=0;bottom=0;" parent="Px60Zx_xpM8tq9wNsqnK-1" vertex="1">
                    <mxGeometry y="300" width="220" height="30" as="geometry"/>
                </mxCell>
                <mxCell id="Px60Zx_xpM8tq9wNsqnK-21" value="FK" style="shape=partialRectangle;connectable=0;fillColor=none;top=0;left=0;bottom=0;right=0;editable=1;overflow=hidden;" parent="Px60Zx_xpM8tq9wNsqnK-20" vertex="1">
                    <mxGeometry width="30" height="30" as="geometry">
                        <mxRectangle width="30" height="30" as="alternateBounds"/>
                    </mxGeometry>
                </mxCell>
                <mxCell id="Px60Zx_xpM8tq9wNsqnK-22" value="publisher (integer)" style="shape=partialRectangle;connectable=0;fillColor=none;top=0;left=0;bottom=0;right=0;align=left;spacingLeft=6;overflow=hidden;" parent="Px60Zx_xpM8tq9wNsqnK-20" vertex="1">
                    <mxGeometry x="30" width="190" height="30" as="geometry">
                        <mxRectangle width="190" height="30" as="alternateBounds"/>
                    </mxGeometry>
                </mxCell>
                <mxCell id="Px60Zx_xpM8tq9wNsqnK-23" value="" style="shape=tableRow;horizontal=0;startSize=0;swimlaneHead=0;swimlaneBody=0;fillColor=none;collapsible=0;dropTarget=0;points=[[0,0.5],[1,0.5]];portConstraint=eastwest;top=0;left=0;right=0;bottom=0;" parent="Px60Zx_xpM8tq9wNsqnK-1" vertex="1">
                    <mxGeometry y="330" width="220" height="30" as="geometry"/>
                </mxCell>
                <mxCell id="Px60Zx_xpM8tq9wNsqnK-24" value="FK" style="shape=partialRectangle;connectable=0;fillColor=none;top=0;left=0;bottom=0;right=0;editable=1;overflow=hidden;" parent="Px60Zx_xpM8tq9wNsqnK-23" vertex="1">
                    <mxGeometry width="30" height="30" as="geometry">
                        <mxRectangle width="30" height="30" as="alternateBounds"/>
                    </mxGeometry>
                </mxCell>
                <mxCell id="Px60Zx_xpM8tq9wNsqnK-25" value="genre (integer)" style="shape=partialRectangle;connectable=0;fillColor=none;top=0;left=0;bottom=0;right=0;align=left;spacingLeft=6;overflow=hidden;" parent="Px60Zx_xpM8tq9wNsqnK-23" vertex="1">
                    <mxGeometry x="30" width="190" height="30" as="geometry">
                        <mxRectangle width="190" height="30" as="alternateBounds"/>
                    </mxGeometry>
                </mxCell>
                <mxCell id="Px60Zx_xpM8tq9wNsqnK-26" value="book_author" style="shape=table;startSize=30;container=1;collapsible=1;childLayout=tableLayout;fixedRows=1;rowLines=0;fontStyle=1;align=center;resizeLast=1;" parent="1" vertex="1">
                    <mxGeometry x="830" y="130" width="180" height="90" as="geometry"/>
                </mxCell>
                <mxCell id="Px60Zx_xpM8tq9wNsqnK-30" value="" style="shape=tableRow;horizontal=0;startSize=0;swimlaneHead=0;swimlaneBody=0;fillColor=none;collapsible=0;dropTarget=0;points=[[0,0.5],[1,0.5]];portConstraint=eastwest;top=0;left=0;right=0;bottom=0;" parent="Px60Zx_xpM8tq9wNsqnK-26" vertex="1">
                    <mxGeometry y="30" width="180" height="30" as="geometry"/>
                </mxCell>
                <mxCell id="Px60Zx_xpM8tq9wNsqnK-31" value="PK, FK" style="shape=partialRectangle;connectable=0;fillColor=none;top=0;left=0;bottom=0;right=0;editable=1;overflow=hidden;" parent="Px60Zx_xpM8tq9wNsqnK-30" vertex="1">
                    <mxGeometry width="50" height="30" as="geometry">
                        <mxRectangle width="50" height="30" as="alternateBounds"/>
                    </mxGeometry>
                </mxCell>
                <mxCell id="Px60Zx_xpM8tq9wNsqnK-32" value="book (integer)" style="shape=partialRectangle;connectable=0;fillColor=none;top=0;left=0;bottom=0;right=0;align=left;spacingLeft=6;overflow=hidden;" parent="Px60Zx_xpM8tq9wNsqnK-30" vertex="1">
                    <mxGeometry x="50" width="130" height="30" as="geometry">
                        <mxRectangle width="130" height="30" as="alternateBounds"/>
                    </mxGeometry>
                </mxCell>
                <mxCell id="Px60Zx_xpM8tq9wNsqnK-33" value="" style="shape=tableRow;horizontal=0;startSize=0;swimlaneHead=0;swimlaneBody=0;fillColor=none;collapsible=0;dropTarget=0;points=[[0,0.5],[1,0.5]];portConstraint=eastwest;top=0;left=0;right=0;bottom=0;" parent="Px60Zx_xpM8tq9wNsqnK-26" vertex="1">
                    <mxGeometry y="60" width="180" height="30" as="geometry"/>
                </mxCell>
                <mxCell id="Px60Zx_xpM8tq9wNsqnK-34" value="PK, FK" style="shape=partialRectangle;connectable=0;fillColor=none;top=0;left=0;bottom=0;right=0;editable=1;overflow=hidden;" parent="Px60Zx_xpM8tq9wNsqnK-33" vertex="1">
                    <mxGeometry width="50" height="30" as="geometry">
                        <mxRectangle width="50" height="30" as="alternateBounds"/>
                    </mxGeometry>
                </mxCell>
                <mxCell id="Px60Zx_xpM8tq9wNsqnK-35" value="author (integer)" style="shape=partialRectangle;connectable=0;fillColor=none;top=0;left=0;bottom=0;right=0;align=left;spacingLeft=6;overflow=hidden;" parent="Px60Zx_xpM8tq9wNsqnK-33" vertex="1">
                    <mxGeometry x="50" width="130" height="30" as="geometry">
                        <mxRectangle width="130" height="30" as="alternateBounds"/>
                    </mxGeometry>
                </mxCell>
                <mxCell id="Px60Zx_xpM8tq9wNsqnK-45" value="authors" style="shape=table;startSize=30;container=1;collapsible=1;childLayout=tableLayout;fixedRows=1;rowLines=0;fontStyle=1;align=center;resizeLast=1;" parent="1" vertex="1">
                    <mxGeometry x="1050" y="130" width="180" height="90" as="geometry"/>
                </mxCell>
                <mxCell id="Px60Zx_xpM8tq9wNsqnK-49" value="" style="shape=tableRow;horizontal=0;startSize=0;swimlaneHead=0;swimlaneBody=0;fillColor=none;collapsible=0;dropTarget=0;points=[[0,0.5],[1,0.5]];portConstraint=eastwest;top=0;left=0;right=0;bottom=0;" parent="Px60Zx_xpM8tq9wNsqnK-45" vertex="1">
                    <mxGeometry y="30" width="180" height="30" as="geometry"/>
                </mxCell>
                <mxCell id="Px60Zx_xpM8tq9wNsqnK-50" value="PK" style="shape=partialRectangle;connectable=0;fillColor=none;top=0;left=0;bottom=0;right=0;editable=1;overflow=hidden;" parent="Px60Zx_xpM8tq9wNsqnK-49" vertex="1">
                    <mxGeometry width="30" height="30" as="geometry">
                        <mxRectangle width="30" height="30" as="alternateBounds"/>
                    </mxGeometry>
                </mxCell>
                <mxCell id="Px60Zx_xpM8tq9wNsqnK-51" value="id (integer)" style="shape=partialRectangle;connectable=0;fillColor=none;top=0;left=0;bottom=0;right=0;align=left;spacingLeft=6;overflow=hidden;" parent="Px60Zx_xpM8tq9wNsqnK-49" vertex="1">
                    <mxGeometry x="30" width="150" height="30" as="geometry">
                        <mxRectangle width="150" height="30" as="alternateBounds"/>
                    </mxGeometry>
                </mxCell>
                <mxCell id="Px60Zx_xpM8tq9wNsqnK-52" value="" style="shape=tableRow;horizontal=0;startSize=0;swimlaneHead=0;swimlaneBody=0;fillColor=none;collapsible=0;dropTarget=0;points=[[0,0.5],[1,0.5]];portConstraint=eastwest;top=0;left=0;right=0;bottom=0;" parent="Px60Zx_xpM8tq9wNsqnK-45" vertex="1">
                    <mxGeometry y="60" width="180" height="30" as="geometry"/>
                </mxCell>
                <mxCell id="Px60Zx_xpM8tq9wNsqnK-53" value="" style="shape=partialRectangle;connectable=0;fillColor=none;top=0;left=0;bottom=0;right=0;editable=1;overflow=hidden;" parent="Px60Zx_xpM8tq9wNsqnK-52" vertex="1">
                    <mxGeometry width="30" height="30" as="geometry">
                        <mxRectangle width="30" height="30" as="alternateBounds"/>
                    </mxGeometry>
                </mxCell>
                <mxCell id="Px60Zx_xpM8tq9wNsqnK-54" value="name (string)" style="shape=partialRectangle;connectable=0;fillColor=none;top=0;left=0;bottom=0;right=0;align=left;spacingLeft=6;overflow=hidden;" parent="Px60Zx_xpM8tq9wNsqnK-52" vertex="1">
                    <mxGeometry x="30" width="150" height="30" as="geometry">
                        <mxRectangle width="150" height="30" as="alternateBounds"/>
                    </mxGeometry>
                </mxCell>
                <mxCell id="Px60Zx_xpM8tq9wNsqnK-58" value="publishers" style="shape=table;startSize=30;container=1;collapsible=1;childLayout=tableLayout;fixedRows=1;rowLines=0;fontStyle=1;align=center;resizeLast=1;" parent="1" vertex="1">
                    <mxGeometry x="270" y="130" width="180" height="90" as="geometry"/>
                </mxCell>
                <mxCell id="Px60Zx_xpM8tq9wNsqnK-59" value="" style="shape=tableRow;horizontal=0;startSize=0;swimlaneHead=0;swimlaneBody=0;fillColor=none;collapsible=0;dropTarget=0;points=[[0,0.5],[1,0.5]];portConstraint=eastwest;top=0;left=0;right=0;bottom=1;" parent="Px60Zx_xpM8tq9wNsqnK-58" vertex="1">
                    <mxGeometry y="30" width="180" height="30" as="geometry"/>
                </mxCell>
                <mxCell id="Px60Zx_xpM8tq9wNsqnK-60" value="PK" style="shape=partialRectangle;connectable=0;fillColor=none;top=0;left=0;bottom=0;right=0;fontStyle=1;overflow=hidden;" parent="Px60Zx_xpM8tq9wNsqnK-59" vertex="1">
                    <mxGeometry width="30" height="30" as="geometry">
                        <mxRectangle width="30" height="30" as="alternateBounds"/>
                    </mxGeometry>
                </mxCell>
                <mxCell id="Px60Zx_xpM8tq9wNsqnK-61" value="id (integer)" style="shape=partialRectangle;connectable=0;fillColor=none;top=0;left=0;bottom=0;right=0;align=left;spacingLeft=6;fontStyle=5;overflow=hidden;" parent="Px60Zx_xpM8tq9wNsqnK-59" vertex="1">
                    <mxGeometry x="30" width="150" height="30" as="geometry">
                        <mxRectangle width="150" height="30" as="alternateBounds"/>
                    </mxGeometry>
                </mxCell>
                <mxCell id="Px60Zx_xpM8tq9wNsqnK-62" value="" style="shape=tableRow;horizontal=0;startSize=0;swimlaneHead=0;swimlaneBody=0;fillColor=none;collapsible=0;dropTarget=0;points=[[0,0.5],[1,0.5]];portConstraint=eastwest;top=0;left=0;right=0;bottom=0;" parent="Px60Zx_xpM8tq9wNsqnK-58" vertex="1">
                    <mxGeometry y="60" width="180" height="30" as="geometry"/>
                </mxCell>
                <mxCell id="Px60Zx_xpM8tq9wNsqnK-63" value="" style="shape=partialRectangle;connectable=0;fillColor=none;top=0;left=0;bottom=0;right=0;editable=1;overflow=hidden;" parent="Px60Zx_xpM8tq9wNsqnK-62" vertex="1">
                    <mxGeometry width="30" height="30" as="geometry">
                        <mxRectangle width="30" height="30" as="alternateBounds"/>
                    </mxGeometry>
                </mxCell>
                <mxCell id="Px60Zx_xpM8tq9wNsqnK-64" value="name (string)" style="shape=partialRectangle;connectable=0;fillColor=none;top=0;left=0;bottom=0;right=0;align=left;spacingLeft=6;overflow=hidden;" parent="Px60Zx_xpM8tq9wNsqnK-62" vertex="1">
                    <mxGeometry x="30" width="150" height="30" as="geometry">
                        <mxRectangle width="150" height="30" as="alternateBounds"/>
                    </mxGeometry>
                </mxCell>
                <mxCell id="Px60Zx_xpM8tq9wNsqnK-71" value="languages" style="shape=table;startSize=30;container=1;collapsible=1;childLayout=tableLayout;fixedRows=1;rowLines=0;fontStyle=1;align=center;resizeLast=1;" parent="1" vertex="1">
                    <mxGeometry x="830" y="280" width="180" height="90" as="geometry"/>
                </mxCell>
                <mxCell id="Px60Zx_xpM8tq9wNsqnK-72" value="" style="shape=tableRow;horizontal=0;startSize=0;swimlaneHead=0;swimlaneBody=0;fillColor=none;collapsible=0;dropTarget=0;points=[[0,0.5],[1,0.5]];portConstraint=eastwest;top=0;left=0;right=0;bottom=1;" parent="Px60Zx_xpM8tq9wNsqnK-71" vertex="1">
                    <mxGeometry y="30" width="180" height="30" as="geometry"/>
                </mxCell>
                <mxCell id="Px60Zx_xpM8tq9wNsqnK-73" value="PK" style="shape=partialRectangle;connectable=0;fillColor=none;top=0;left=0;bottom=0;right=0;fontStyle=1;overflow=hidden;" parent="Px60Zx_xpM8tq9wNsqnK-72" vertex="1">
                    <mxGeometry width="30" height="30" as="geometry">
                        <mxRectangle width="30" height="30" as="alternateBounds"/>
                    </mxGeometry>
                </mxCell>
                <mxCell id="Px60Zx_xpM8tq9wNsqnK-74" value="id (integer)" style="shape=partialRectangle;connectable=0;fillColor=none;top=0;left=0;bottom=0;right=0;align=left;spacingLeft=6;fontStyle=5;overflow=hidden;" parent="Px60Zx_xpM8tq9wNsqnK-72" vertex="1">
                    <mxGeometry x="30" width="150" height="30" as="geometry">
                        <mxRectangle width="150" height="30" as="alternateBounds"/>
                    </mxGeometry>
                </mxCell>
                <mxCell id="Px60Zx_xpM8tq9wNsqnK-75" value="" style="shape=tableRow;horizontal=0;startSize=0;swimlaneHead=0;swimlaneBody=0;fillColor=none;collapsible=0;dropTarget=0;points=[[0,0.5],[1,0.5]];portConstraint=eastwest;top=0;left=0;right=0;bottom=0;" parent="Px60Zx_xpM8tq9wNsqnK-71" vertex="1">
                    <mxGeometry y="60" width="180" height="30" as="geometry"/>
                </mxCell>
                <mxCell id="Px60Zx_xpM8tq9wNsqnK-76" value="" style="shape=partialRectangle;connectable=0;fillColor=none;top=0;left=0;bottom=0;right=0;editable=1;overflow=hidden;" parent="Px60Zx_xpM8tq9wNsqnK-75" vertex="1">
                    <mxGeometry width="30" height="30" as="geometry">
                        <mxRectangle width="30" height="30" as="alternateBounds"/>
                    </mxGeometry>
                </mxCell>
                <mxCell id="Px60Zx_xpM8tq9wNsqnK-77" value="name (string)" style="shape=partialRectangle;connectable=0;fillColor=none;top=0;left=0;bottom=0;right=0;align=left;spacingLeft=6;overflow=hidden;" parent="Px60Zx_xpM8tq9wNsqnK-75" vertex="1">
                    <mxGeometry x="30" width="150" height="30" as="geometry">
                        <mxRectangle width="150" height="30" as="alternateBounds"/>
                    </mxGeometry>
                </mxCell>
                <mxCell id="Px60Zx_xpM8tq9wNsqnK-85" value="genres" style="shape=table;startSize=30;container=1;collapsible=1;childLayout=tableLayout;fixedRows=1;rowLines=0;fontStyle=1;align=center;resizeLast=1;" parent="1" vertex="1">
                    <mxGeometry x="270" y="280" width="180" height="90" as="geometry"/>
                </mxCell>
                <mxCell id="Px60Zx_xpM8tq9wNsqnK-86" value="" style="shape=tableRow;horizontal=0;startSize=0;swimlaneHead=0;swimlaneBody=0;fillColor=none;collapsible=0;dropTarget=0;points=[[0,0.5],[1,0.5]];portConstraint=eastwest;top=0;left=0;right=0;bottom=1;" parent="Px60Zx_xpM8tq9wNsqnK-85" vertex="1">
                    <mxGeometry y="30" width="180" height="30" as="geometry"/>
                </mxCell>
                <mxCell id="Px60Zx_xpM8tq9wNsqnK-87" value="PK" style="shape=partialRectangle;connectable=0;fillColor=none;top=0;left=0;bottom=0;right=0;fontStyle=1;overflow=hidden;" parent="Px60Zx_xpM8tq9wNsqnK-86" vertex="1">
                    <mxGeometry width="30" height="30" as="geometry">
                        <mxRectangle width="30" height="30" as="alternateBounds"/>
                    </mxGeometry>
                </mxCell>
                <mxCell id="Px60Zx_xpM8tq9wNsqnK-88" value="genre_id (integer)" style="shape=partialRectangle;connectable=0;fillColor=none;top=0;left=0;bottom=0;right=0;align=left;spacingLeft=6;fontStyle=5;overflow=hidden;" parent="Px60Zx_xpM8tq9wNsqnK-86" vertex="1">
                    <mxGeometry x="30" width="150" height="30" as="geometry">
                        <mxRectangle width="150" height="30" as="alternateBounds"/>
                    </mxGeometry>
                </mxCell>
                <mxCell id="Px60Zx_xpM8tq9wNsqnK-89" value="" style="shape=tableRow;horizontal=0;startSize=0;swimlaneHead=0;swimlaneBody=0;fillColor=none;collapsible=0;dropTarget=0;points=[[0,0.5],[1,0.5]];portConstraint=eastwest;top=0;left=0;right=0;bottom=0;" parent="Px60Zx_xpM8tq9wNsqnK-85" vertex="1">
                    <mxGeometry y="60" width="180" height="30" as="geometry"/>
                </mxCell>
                <mxCell id="Px60Zx_xpM8tq9wNsqnK-90" value="" style="shape=partialRectangle;connectable=0;fillColor=none;top=0;left=0;bottom=0;right=0;editable=1;overflow=hidden;" parent="Px60Zx_xpM8tq9wNsqnK-89" vertex="1">
                    <mxGeometry width="30" height="30" as="geometry">
                        <mxRectangle width="30" height="30" as="alternateBounds"/>
                    </mxGeometry>
                </mxCell>
                <mxCell id="Px60Zx_xpM8tq9wNsqnK-91" value="name (string)" style="shape=partialRectangle;connectable=0;fillColor=none;top=0;left=0;bottom=0;right=0;align=left;spacingLeft=6;overflow=hidden;" parent="Px60Zx_xpM8tq9wNsqnK-89" vertex="1">
                    <mxGeometry x="30" width="150" height="30" as="geometry">
                        <mxRectangle width="150" height="30" as="alternateBounds"/>
                    </mxGeometry>
                </mxCell>
                <mxCell id="Px60Zx_xpM8tq9wNsqnK-95" style="edgeStyle=orthogonalEdgeStyle;rounded=0;orthogonalLoop=1;jettySize=auto;html=1;exitX=0;exitY=0.5;exitDx=0;exitDy=0;entryX=1;entryY=0.5;entryDx=0;entryDy=0;startArrow=ERone;startFill=0;endArrow=ERmany;endFill=0;" parent="1" source="Px60Zx_xpM8tq9wNsqnK-49" target="Px60Zx_xpM8tq9wNsqnK-33" edge="1">
                    <mxGeometry relative="1" as="geometry"/>
                </mxCell>
                <mxCell id="Px60Zx_xpM8tq9wNsqnK-96" style="edgeStyle=orthogonalEdgeStyle;rounded=0;orthogonalLoop=1;jettySize=auto;html=1;exitX=1;exitY=0.5;exitDx=0;exitDy=0;entryX=0;entryY=0.5;entryDx=0;entryDy=0;startArrow=ERone;startFill=0;endArrow=ERmany;endFill=0;" parent="1" source="Px60Zx_xpM8tq9wNsqnK-2" target="Px60Zx_xpM8tq9wNsqnK-30" edge="1">
                    <mxGeometry relative="1" as="geometry"/>
                </mxCell>
                <mxCell id="Px60Zx_xpM8tq9wNsqnK-97" style="edgeStyle=orthogonalEdgeStyle;rounded=0;orthogonalLoop=1;jettySize=auto;html=1;exitX=0;exitY=0.5;exitDx=0;exitDy=0;entryX=1;entryY=0.5;entryDx=0;entryDy=0;startArrow=ERone;startFill=0;endArrow=ERmany;endFill=0;" parent="1" source="Px60Zx_xpM8tq9wNsqnK-72" target="Px60Zx_xpM8tq9wNsqnK-11" edge="1">
                    <mxGeometry relative="1" as="geometry"/>
                </mxCell>
                <mxCell id="Px60Zx_xpM8tq9wNsqnK-98" style="edgeStyle=orthogonalEdgeStyle;rounded=0;orthogonalLoop=1;jettySize=auto;html=1;exitX=1;exitY=0.5;exitDx=0;exitDy=0;entryX=0;entryY=0.5;entryDx=0;entryDy=0;startArrow=ERone;startFill=0;endArrow=ERmany;endFill=0;" parent="1" source="Px60Zx_xpM8tq9wNsqnK-86" target="Px60Zx_xpM8tq9wNsqnK-23" edge="1">
                    <mxGeometry relative="1" as="geometry">
                        <Array as="points">
                            <mxPoint x="490" y="325"/>
                            <mxPoint x="490" y="470"/>
                            <mxPoint x="545" y="470"/>
                        </Array>
                    </mxGeometry>
                </mxCell>
                <mxCell id="Px60Zx_xpM8tq9wNsqnK-102" style="edgeStyle=orthogonalEdgeStyle;rounded=0;orthogonalLoop=1;jettySize=auto;html=1;exitX=1;exitY=0.5;exitDx=0;exitDy=0;entryX=0;entryY=0.5;entryDx=0;entryDy=0;startArrow=ERone;startFill=0;endArrow=ERmany;endFill=0;" parent="1" source="Px60Zx_xpM8tq9wNsqnK-59" target="Px60Zx_xpM8tq9wNsqnK-20" edge="1">
                    <mxGeometry relative="1" as="geometry"/>
                </mxCell>
            </root>
        </mxGraphModel>
    </diagram>
</mxfile>